<svg version="1.1" id="Layer_1" xmlns="http://www.w3.org/2000/svg" x="0" y="0" viewBox="0 0 259.8 63" xml:space="preserve"><style>.st3{fill:#fff}</style><g id="Layer_1_1_"><path class="st3" d="M91.6 40.7h-9.9L80 44h-8.9l15.2-25.8h9.8L100 44h-8.1l-.3-3.3zm-6.4-6.5H91l-.9-9.5-4.9 9.5zm21.7-16h7L108.2 44h-7l5.7-25.8zm10.5 32.9h-7l5.7-25.8h7l-.5 2c1.6-1.8 3.1-2.4 5.1-2.4 4.2 0 7 2.7 7 7.8 0 5.2-3.2 11.8-9.9 11.8-2.1 0-4.2-.8-5.4-2.4l-2 9zm7.1-20.1c-1.1 0-2 .5-2.8 1.3l-1.1 4.8c.7.8 1.9 1.3 3.1 1.3 2.2 0 3.9-1.8 3.9-4.2 0-2-1.5-3.2-3.1-3.2zm25.5 3c.1-.3.2-.9.2-1.2 0-1.3-1.1-1.7-2.5-1.7-1.2 0-2.3.8-3 1.4L142.1 44h-7l5.7-25.8h7l-2.1 9.3c1.4-1.2 3.1-2.6 5.9-2.6 3.9 0 6.2 2.1 6.2 4.9 0 .4-.1 1.2-.2 1.5L154.8 44h-7l2.2-10zm25-8.7h7L177.8 44h-7l.5-2c-1.6 1.8-3.1 2.4-5.1 2.4-4.2 0-7-2.8-7-7.8 0-5.2 3.2-11.8 9.9-11.8 2.1 0 4.2.8 5.4 2.4l.5-1.9zm-5.4 13c1.1 0 2-.5 2.8-1.3l1.1-4.8c-.7-.8-1.9-1.3-3.1-1.3-2.2 0-3.9 1.8-3.9 4.2 0 2 1.4 3.2 3.1 3.2zm16.1-4.3c1.9 2.3 5.5 3.9 8.9 3.9 1.6 0 2.2-.6 2.2-1.3 0-.9-1.2-1.5-3.3-2.2-3.6-1.2-8.9-3-8.9-8.4 0-3.4 3.5-8.2 10.9-8.2 4.2 0 8.4 1.5 11.3 4.3l-4.6 5.3c-1.9-2.1-5.3-3.1-7.5-3.1-1.4 0-2 .6-2 1.3 0 .9 1.4 1.4 3.3 2.1 3.7 1.2 9 3.1 9 8.1 0 4.8-4.1 8.8-10.8 8.8-5.5 0-10.4-2-12.9-5l4.4-5.6zm22.1 4.3l1.5-6.9h-3.1l1.4-6h3.1l1.1-5.1h7l-1.1 5.1h3.8l-1.4 6h-3.8l-1 4.6c-.1.3-.1.7-.1.9 0 .9.5 1.5 1.7 1.5.3 0 .9-.1 1-.2v5.6c-.7.5-2.1.8-3.3.8-4 0-6.9-1.5-6.9-4.7-.1-.4-.1-1.1.1-1.6zm28.4-13h7L239 44h-7l.5-2c-1.6 1.8-3.1 2.4-5.1 2.4-4.2 0-7-2.8-7-7.8 0-5.2 3.2-11.8 9.9-11.8 2.1 0 4.2.8 5.4 2.4l.5-1.9zm-5.4 13c1.1 0 2-.5 2.8-1.3l1.1-4.8c-.7-.8-1.9-1.3-3.1-1.3-2.2 0-3.9 1.8-3.9 4.2 0 2 1.4 3.2 3.1 3.2zm16.3-13h7l-.5 2.1c1.4-1.5 3.6-2.6 6.3-2.6l-1.5 6.8c-.3-.1-1.2-.3-2.1-.3-1.5 0-2.9.5-3.9 1.4L249.9 44h-7l4.2-18.7zM28.6 33.1h5.8L31.5 24z"/><path class="st3" d="M31.5 5.6C17.2 5.6 5.6 17.2 5.6 31.5s11.6 25.9 25.9 25.9 25.9-11.6 25.9-25.9S45.8 5.6 31.5 5.6zm6 37.3l-1-3.3h-9.9l-1 3.3h-8.5l9.5-25.8h9.8l9.5 25.8h-8.4z"/><path class="st3" d="M31.4 20.9l2.5 4.9 5.4.8-3.9 3.9.9 5.4-4.9-2.5-4.9 2.5.9-5.4-3.9-3.9 5.5-.8z"/></g></svg>