<svg version="1.1" id="Isolation_Mode" xmlns="http://www.w3.org/2000/svg" x="0" y="0" viewBox="0 0 362.5 362.5" xml:space="preserve"><style>.st0{fill:#0068af}.st1{fill:#ff7300}</style><path class="st0" d="M317.2 114.6C280.4 39.5 189.7 8.4 114.6 45.3 39.5 82.1 8.4 172.8 45.3 247.9 82.1 323 172.8 354 247.9 317.2S354 189.7 317.2 114.6zm-84.7 171.2c-57.8 28.3-127.6 4.4-155.9-53.3C48.3 174.7 72.2 105 130 76.6c57.8-28.3 127.6-4.4 155.9 53.3 28.3 57.8 4.4 127.6-53.4 155.9z"/><path class="st0" d="M101.4 73.2l43.3-21.3-32.9-38.5-20.7 10.2zM51.9 217.7l21.3 43.4-49.6 10.3-10.2-20.7zm209.2 71.6l-43.4 21.2 33 38.6 20.7-10.2zm49.4-144.6l-21.2-43.3 49.6-10.3 10.2 20.7zM48.1 161.2l15.6-45.7-49.9-3.7-7.4 21.8zm67.4 137.5l45.7 15.7-27.6 41.7-21.8-7.5zm198.9-97.4l-15.7 45.6 49.9 3.8 7.5-21.8zM246.9 63.7l-45.6-15.6 27.6-41.7 21.8 7.4zM65.5 112.5l31.6-36.4-44.8-22.3-15.1 17.4zm10.6 152.8l36.4 31.7-41.3 28.3-17.4-15.1zM297 249.9l-31.7 36.5 44.9 22.2 15.1-17.4zM286.4 97.1l-36.5-31.6 41.3-28.3 17.4 15.1zM50.8 214.5l-3.4-48.1L0 182.3l1.6 23zM166.4 315l48.1-3.3-9.2 49.2-23 1.6zm145.3-167.1l3.3 48.2 47.5-15.9-1.6-23zM196.1 47.4l-48.2 3.4 9.3-49.2 23-1.6z"/><path class="st1" d="M280.6 105.8s1 1.7 2.9 4.7c.5.8 1 1.5 1.5 2.6.6 1 1.1 2.2 1.8 3.4.6 1.2 1.3 2.5 2 3.8.6 1.3 1.2 2.8 1.9 4.2.3.7.6 1.5 1 2.3.3.8.7 1.5 1 2.4.6 1.6 1.2 3.3 1.8 5 .7 1.7 1.1 3.5 1.7 5.4.3.9.5 1.9.8 2.8.3.9.6 1.9.7 2.9.4 1.9.8 3.9 1.3 5.9.2 1 .4 2 .5 3 .1 1 .3 2 .4 3.1.1 1 .3 2.1.4 3.1.1 1 .2 2.1.2 3.1.1 1 .2 2.1.2 3.1.1 1 .2 2.1.2 3.1v6.3c0 1-.1 2.1-.1 3.1-.1 1-.1 2.1-.2 3.1s-.1 2-.2 3-.3 2-.4 3c-.3 2-.5 3.9-.8 5.8-.8 3.8-1.4 7.5-2.5 10.8-.5 1.7-.9 3.3-1.4 4.9-.6 1.6-1.1 3.1-1.6 4.5-.3.7-.5 1.4-.8 2.1-.1.3-.2.7-.4 1-.1.3-.3.6-.4 1-.6 1.3-1.1 2.5-1.6 3.6s-1 2.2-1.4 3.2c-.5.9-1 1.8-1.4 2.6-1.7 3.1-2.6 4.9-2.6 4.9s.7-1.9 1.9-5.2c.3-.8.6-1.7 1-2.7.3-1 .6-2.1.9-3.3.3-1.2.7-2.4 1.1-3.7.1-.3.2-.7.3-1 .1-.3.1-.7.2-1 .1-.7.3-1.4.5-2.1.3-1.5.6-3 1-4.5.3-1.6.5-3.2.7-4.9.6-3.3.7-7 .9-10.6.1-1.8 0-3.7 0-5.6v-2.8c-.1-1-.1-1.9-.2-2.9s-.1-1.9-.2-2.9-.1-1.9-.3-2.9c-.3-1.9-.5-3.8-.8-5.8-.1-1-.4-1.9-.5-2.9l-.6-2.8c-.2-.9-.4-1.9-.6-2.8-.3-.9-.5-1.8-.8-2.7-.3-.9-.5-1.8-.8-2.7-.3-.9-.5-1.8-.8-2.7-.6-1.7-1.2-3.5-1.9-5.1-.3-.8-.7-1.7-1-2.5-.4-.8-.7-1.6-1.1-2.4-.7-1.6-1.3-3.1-2.1-4.6-.8-1.4-1.5-2.8-2.2-4.2-.3-.7-.7-1.3-1.1-2-.4-.6-.8-1.2-1.1-1.8-.7-1.2-1.4-2.4-2.1-3.4-.7-1-1.4-2-2.1-2.9-.6-.9-1.2-1.7-1.8-2.5-.6-.8-1.3-1.6-1.8-2.2-2.2-2.7-3.5-4.3-3.5-4.3-3.1-3.8-2.5-9.3 1.3-12.4s9.3-2.5 12.4 1.3c.3 0 .5.4.7.7z"/><path class="st1" d="M255.6 147.6l-23.7-71 73.2 15z"/><circle cx="183.1" cy="181.3" r="35.5" fill="none" stroke="#0068af" stroke-width="40" stroke-miterlimit="10"/></svg>