<svg version="1.1" id="Isolation_Mode" xmlns="http://www.w3.org/2000/svg" x="0" y="0" viewBox="0 0 362.5 362.5" xml:space="preserve"><style>.st0{fill:#0068af}.st1{fill:#ff7300}</style><path class="st0" d="M114.6 317.2c75.1 36.8 165.8 5.8 202.6-69.3C354 172.8 323 82.1 247.9 45.3 172.8 8.4 82.1 39.5 45.3 114.6c-36.9 75.1-5.8 165.8 69.3 202.6zM76.6 130c28.3-57.8 98.1-81.6 155.9-53.3 57.8 28.3 81.6 98.1 53.3 155.9-28.3 57.8-98.1 81.6-155.9 53.3-57.7-28.4-81.6-98.2-53.3-155.9z"/><path class="st0" d="M261.1 73.2l-43.4-21.3 33-38.5 20.7 10.2zm49.4 144.5l-21.2 43.4 49.6 10.3 10.2-20.7zm-209.1 71.6l43.3 21.2-32.9 38.6-20.7-10.2zM51.9 144.7l21.3-43.3-49.6-10.3-10.2 20.7zm262.5 16.5l-15.7-45.7 49.9-3.7 7.5 21.8zm-67.5 137.5l-45.6 15.7 27.6 41.7 21.8-7.5zM48.1 201.3l15.6 45.6-49.9 3.8-7.4-21.8zm67.4-137.6l45.7-15.6-27.6-41.7-21.8 7.4zM297 112.5l-31.7-36.4 44.9-22.3 15.1 17.4zm-10.6 152.8L249.9 297l41.3 28.3 17.4-15.1zM65.5 249.9l31.6 36.5-44.8 22.2-15.1-17.4zM76.1 97.1l36.4-31.6-41.3-28.3-17.4 15.1zm235.6 117.4l3.3-48.1 47.5 15.9-1.6 23zM196.1 315l-48.2-3.3 9.3 49.2 23 1.6zM50.8 147.9l-3.4 48.2L0 180.2l1.6-23zM166.4 47.4l48.1 3.4-9.2-49.2-23-1.6z"/><path class="st1" d="M96.2 115.9s-1.3 1.6-3.5 4.3c-.5.7-1.2 1.5-1.8 2.2-.5.8-1.1 1.6-1.8 2.5-.6.9-1.3 1.9-2.1 2.9-.7 1.1-1.4 2.2-2.1 3.4-.4.6-.8 1.2-1.1 1.8-.4.6-.8 1.3-1.1 2-.7 1.4-1.4 2.8-2.2 4.2-.8 1.4-1.4 3-2.1 4.6-.3.8-.7 1.6-1.1 2.4-.4.8-.7 1.6-1 2.5-.6 1.7-1.2 3.4-1.9 5.1-.3.9-.6 1.8-.8 2.7-.3.9-.5 1.8-.8 2.7-.3.9-.5 1.8-.8 2.7-.2.9-.4 1.9-.6 2.8l-.6 2.8c-.2.9-.4 1.9-.5 2.9-.3 1.9-.5 3.8-.8 5.8-.2 1-.2 1.9-.3 2.9-.1 1-.1 1.9-.2 2.9s-.1 1.9-.2 2.9v2.8c0 1.9-.1 3.8 0 5.6.3 3.7.4 7.3.9 10.6.2 1.7.4 3.3.7 4.9.3 1.6.7 3.1 1 4.5.2.7.3 1.4.5 2.1.1.4.1.7.2 1 .1.3.2.7.3 1 .4 1.3.7 2.6 1.1 3.7.3 1.2.7 2.3.9 3.3.4 1 .7 1.9 1 2.7 1.2 3.3 1.9 5.2 1.9 5.2s-.9-1.8-2.6-4.9c-.4-.8-.9-1.7-1.4-2.6-.4-1-.9-2-1.4-3.2-.5-1.1-1-2.3-1.6-3.6-.1-.3-.3-.6-.4-1-.1-.3-.2-.7-.4-1-.2-.7-.5-1.4-.8-2.1-.5-1.4-1.1-2.9-1.6-4.5s-.9-3.2-1.4-4.9c-1.1-3.4-1.7-7-2.5-10.8-.3-1.9-.5-3.9-.8-5.8-.1-1-.3-2-.4-3-.1-1-.1-2-.2-3s-.1-2-.2-3.1c-.1-1-.2-2.1-.1-3.1v-6.3c0-1.1.1-2.1.2-3.1s.2-2.1.2-3.1c.1-1 .1-2.1.2-3.1s.3-2.1.4-3.1c.1-1 .3-2 .4-3.1.1-1 .3-2 .5-3 .4-2 .8-4 1.3-5.9.2-1 .5-1.9.7-2.9.3-.9.5-1.9.8-2.8.5-1.8 1-3.7 1.7-5.4.6-1.7 1.2-3.4 1.8-5 .3-.8.6-1.6 1-2.4.3-.8.7-1.5 1-2.3.7-1.5 1.3-2.9 1.9-4.2.7-1.3 1.4-2.6 2-3.8.6-1.2 1.2-2.3 1.8-3.4.6-1 1.1-1.8 1.5-2.6 1.8-3 2.9-4.7 2.9-4.7 2.5-4.2 7.9-5.5 12.1-3 4.2 2.5 5.5 7.9 3 12.1-.2.6-.4 1-.7 1.3z"/><path class="st1" d="M57.3 91.6l73.3-15-23.7 71z"/><circle cx="179.4" cy="181.3" r="35.5" fill="none" stroke="#0068af" stroke-width="40" stroke-miterlimit="10"/></svg>