<svg viewBox="0 0 388.7 304.7" class="brandLogo"><g class="brandLogo__boxes"><path class="brandLogo__box--01" d="M187 56.2L17.2 36.3l12.9 128 160.3 3.4z"/><path class="brandLogo__box--02" d="M371.1 254.4l-177.3-13.6-3.4-73.1 173.9 3.4z"/><path class="brandLogo__box--03" d="M354.2 167.7H190.4v-124l190.3-33.4z"/><path class="brandLogo__box--04" d="M20.6 167.7h169.8v63.7L10.3 245z"/></g><path d="M161 87.7c1 0 2 .6 3.1 1.7 1.1 1.2 2.2 2.7 3.4 4.5 1.1 1.8 2.2 3.8 3.3 6 1 2.2 2 4.3 2.7 6.4.4 1.1.9 2.5 1.5 4.4.6 1.9 1.4 4.1 2.2 6.6.8 2.5 1.7 5.2 2.6 8.2.9 2.9 1.8 6 2.8 9.1 1 3.1 1.9 6.2 2.8 9.3.9 3.1 1.8 6.1 2.7 8.9.9 2.8 1.7 5.4 2.4 7.8.7 2.4 1.3 4.4 1.8 6.1.1-1 .5-2.5 1.2-4.4.6-1.9 1.4-4.1 2.3-6.5.9-2.4 1.9-5 3-7.7s2.1-5.3 3.2-7.9c1-2.5 2-4.9 2.9-7 .9-2.2 1.7-3.9 2.3-5.2 1.1-2.6 2.5-5.7 4-9.4s3.1-7.4 4.8-11.4l5.1-11.7c1.7-3.9 3.3-7.4 4.8-10.4 1.5-3.1 2.8-5.5 3.9-7.5 1.1-1.9 1.9-2.9 2.4-2.9s1.1.2 1.6.7.9 1.1 1.3 1.8c.3.8.6 1.7.8 2.7s.3 2.1.3 3.3c0 .6-.2 1.6-.7 3.1-.5 1.5-1.1 3.3-2 5.3-.8 2.1-1.8 4.4-2.9 6.9-1.1 2.6-2.2 5.2-3.4 7.9l-3.6 8.1c-1.2 2.7-2.4 5.3-3.5 7.8s-2.1 4.7-3 6.8c-.9 2.1-1.7 3.8-2.3 5.1-.9 2-1.8 4.2-2.8 6.6-1 2.4-2.1 4.8-3.2 7.4-1.1 2.5-2.2 5.1-3.2 7.6s-1.9 4.9-2.7 7.2-1.4 4.4-1.9 6.3-.7 3.5-.7 4.8c0 2.5-.1 4.5-.3 6-.2 1.5-.5 2.7-1 3.6-.5.8-1.2 1.4-2 1.7-.9.3-1.9.5-3.2.5-1.3 0-2.3-.3-3-1-.7-.7-1.2-1.6-1.6-2.7-.4-1.1-.8-2.5-1.1-4-.3-1.5-.7-3.1-1.2-4.8-.3-.8-.8-2.4-1.5-4.7-.7-2.3-1.6-5.1-2.7-8.4-1.1-3.3-2.2-6.9-3.5-10.8-1.3-3.9-2.5-7.9-3.9-11.9-1.3-4-2.6-7.9-3.9-11.8-1.3-3.8-2.4-7.3-3.5-10.4-1.1-3.1-2-5.7-2.7-7.8-.8-2.1-1.3-3.4-1.5-4-.5-1.1-1.1-2.2-1.7-3.2-.6-1.1-1.1-2-1.5-2.9-.4-.9-.8-1.7-1.1-2.4-.3-.7-.4-1.3-.4-1.7v-1.6c0-.6.1-1.3.2-1.9.1-.6.3-1.2.6-1.6.3-.4.7-.6 1.2-.6zm-18.7 13c1 0 2 .2 3.1.6 1 .4 2 1 2.9 1.6.9.6 1.6 1.3 2.2 1.9.6.6.9 1.2.9 1.6 0 .2-.2.7-.6 1.3-.4.6-1 1.2-1.6 1.8-.7.6-1.5 1.2-2.5 1.6-1 .5-2 .7-3.2.7-.7 0-1.3-.2-1.7-.5-.5-.3-.7-.9-.7-1.7-1.4.1-3.5.6-6.1 1.4-2.6.8-5.6 1.9-9 3.3-3.4 1.4-7 3-10.9 4.9-3.9 1.9-7.8 3.8-11.7 5.9-3.9 2.1-7.7 4.2-11.3 6.5-3.7 2.2-7 4.4-10 6.6-3 2.2-5.5 4.2-7.5 6.2s-3.3 3.7-3.9 5.3c5.7-1.3 11.5-2.5 17.5-3.5s11.8-2 17.3-2.7c5.5-.7 10.6-1.3 15.3-1.7s8.4-.6 11.4-.6c4.6 0 8.4.5 11.4 1.6s5.4 2.5 7.3 4.3c1.8 1.8 3.1 3.9 3.9 6.2.7 2.4 1.1 4.9 1.1 7.4 0 3-1.1 6-3.2 9.1-2.2 3.1-5.1 6.1-8.7 9-3.7 2.9-7.9 5.6-12.7 8.1-4.8 2.5-9.8 4.7-15.1 6.6-5.3 1.9-10.6 3.4-16 4.5s-10.5 1.6-15.4 1.6c-3.5 0-6.7-.4-9.8-1.2-3-.8-5.7-2-7.9-3.5s-4-3.3-5.3-5.4c-1.3-2.1-2-4.5-2-7 0-1 .3-1.8.9-2.6.6-.8 1.2-1.1 2-1.1.7 0 1.3.5 1.9 1.4.6 1 .9 2.6.9 5.1 0 .5.4 1.1 1.1 1.8.7.7 1.8 1.4 3.4 2 1.5.6 3.5 1.2 6 1.6 2.5.5 5.4.7 8.8.7 4.8 0 9.8-.6 14.8-1.8 5.1-1.2 10.1-2.8 15-4.8s9.5-4.2 13.8-6.7c4.3-2.5 8.1-5.1 11.4-7.7s5.9-5.2 7.8-7.7c1.9-2.5 2.9-4.7 2.9-6.6 0-1.1-.4-2.2-1.3-3.2s-2.1-1.9-3.7-2.7c-1.6-.8-3.4-1.4-5.6-1.8-2.2-.5-4.5-.7-7.1-.7-3.1 0-6.8.2-10.9.7-4.1.5-8.4 1.1-12.8 1.8s-8.8 1.5-13.2 2.3c-4.4.8-8.4 1.6-12.1 2.3-3.7.7-6.9 1.3-9.5 1.8-2.7.5-4.5.7-5.4.7-.8 0-1.5-.2-2.1-.5-.7-.3-1.2-.9-1.7-1.7-.5-.8-.9-1.9-1.1-3.2s-.4-3-.4-5c0-.9.5-2.1 1.4-3.5.9-1.4 2.2-3 3.9-4.8 1.7-1.8 3.7-3.7 6-5.7s4.9-4.1 7.7-6.1c2.8-2.1 5.8-4.1 9-6.1s6.5-3.9 9.9-5.6c5.6-2.9 10.8-5.3 15.6-7.1 4.8-1.9 8.9-3.3 12.5-4.4 3.6-1.1 6.6-1.8 8.9-2.2 1.6-.5 3.1-.7 3.8-.7zM315.6 159c.2-2.5.5-5.1.7-7.9.3-2.8.5-5.7.9-8.7-3 3-6.4 5.9-10.3 8.7-3.9 2.8-8 5.4-12.3 7.8s-8.9 4.7-13.5 6.7-9.2 3.8-13.7 5.2c-4.5 1.4-8.9 2.6-13.1 3.4-4.2.8-8 1.2-11.5 1.2-2.7 0-5.3-.2-7.8-.7-2.5-.5-4.8-1.3-6.8-2.6-2-1.2-3.6-2.9-4.8-5.1-1.2-2.1-1.8-4.9-1.8-8.2 0-2.7.7-5.8 2-9.4 1.3-3.6 3.2-7.4 5.5-11.5 2.4-4.1 5.2-8.3 8.4-12.8 3.2-4.4 6.7-8.9 10.5-13.4s7.8-8.9 12-13.3 8.5-8.6 12.8-12.5 8.6-7.6 12.8-11c4.2-3.4 8.3-6.3 12.2-8.7 3.9-2.4 7.6-4.4 10.9-5.7 3.4-1.4 6.4-2.1 8.9-2.1 1.2 0 2.5.2 3.7.6 1.2.4 2.3 1 3.3 1.8s1.8 1.9 2.4 3.1.9 2.7.9 4.4c0 .8-.1 1.6-.3 2.5-.2.9-.7 1.3-1.4 1.3s-1.2-.1-1.5-.4c-.3-.3-.6-.5-1-.8-.4-.3-.8-.6-1.4-.8-.6-.3-1.5-.4-2.7-.4-2.6 0-5.8 1-9.8 3-3.9 2-8.2 4.6-12.9 8-4.7 3.3-9.6 7.2-14.7 11.7-5.1 4.4-10.2 9.1-15.1 14.1-5 5-9.7 10-14.2 15.1s-8.5 10.1-11.9 14.8c-3.4 4.8-6.1 9.2-8.1 13.2-2 4.1-3 7.5-3 10.3 0 1.8.3 3.2.9 4.2.6 1 1.4 1.7 2.5 2.2 1.1.5 2.3.8 3.8.9 1.5.1 3.1.2 4.9.2 3.3 0 7-.4 10.9-1.2 4-.8 8.1-1.9 12.3-3.3 4.2-1.4 8.5-3.1 12.8-4.9 4.3-1.9 8.4-3.9 12.4-6.1 4-2.2 7.7-4.5 11.1-6.9 3.5-2.4 6.5-4.8 9.1-7.1 2.6-2.4 4.6-4.7 6.1-6.9s2.2-4.3 2.2-6.2c-1.1 1.2-2.6 2.6-4.4 4.1-1.8 1.5-3.8 3-5.9 4.5-2.1 1.5-4.4 2.9-6.8 4.3-2.4 1.4-4.8 2.7-7.1 3.8-2.3 1.1-4.6 2-6.7 2.6-2.1.6-4 1-5.6 1-2.5 0-3.8-1.3-3.8-4 0-1.2.8-2.7 2.3-4.6s3.5-3.9 5.9-6.1c2.4-2.2 5.2-4.3 8.2-6.5s6.1-4.1 9.2-5.9c3.1-1.8 6-3.2 8.8-4.3 2.8-1.1 5.1-1.6 7-1.6 2.7 0 4.8.6 6.2 1.9 1.4 1.3 2.1 3.3 2.1 6.2 0 1.3-.2 3.3-.5 6.1-.4 2.8-.8 6.3-1.3 10.7-.5 4.4-.9 9.6-1.3 15.7-.4 6-.5 13-.5 20.8 0 4.7 0 8.6.1 11.6s.2 5.6.3 7.7.2 3.9.3 5.4c.1 1.5.1 3 .1 4.5 0 .9-.2 1.9-.7 2.9-.5 1-1 1.9-1.7 2.8-.7.8-1.4 1.5-2.2 2.1-.8.6-1.6.8-2.3.8-.7 0-1.4-.7-1.9-2.1s-.9-3.3-1.2-5.7c-.3-2.4-.5-5.2-.7-8.3-.1-3.2-.2-6.5-.2-10 0-4.4.1-8.9.3-13.5s.5-8.8.7-12.7zM47.1 282.8h-7.3v7.3h-1.3v-15.6h9.7v1.1h-8.4v6.1h7.3v1.1zm27.7-8.3v10.6c0 .9-.1 1.6-.4 2.3s-.7 1.2-1.2 1.6c-.5.4-1.1.8-1.7 1-.7.2-1.4.3-2.1.3-.8 0-1.5-.1-2.2-.3-.7-.2-1.2-.5-1.7-1-.5-.4-.9-1-1.2-1.6s-.4-1.4-.4-2.3v-10.6h1.3v10.6c0 .7.1 1.3.3 1.8.2.5.5.9.9 1.3.4.3.8.6 1.3.8.5.2 1.1.3 1.7.3.6 0 1.2-.1 1.7-.3.5-.2 1-.4 1.3-.8.4-.3.7-.8.9-1.3.2-.5.3-1.1.3-1.8v-10.6h1.2zm28.4 15.6h-1.3l-9-13.4v13.4h-1.3v-15.6h1.3l9 13.4v-13.4h1.3v15.6zm17.2 0v-15.6h4.4c1 0 1.9.2 2.7.5.8.3 1.5.8 2.1 1.4.6.6 1 1.4 1.4 2.2.3.9.5 1.8.5 2.9v1.4c0 1.1-.2 2-.5 2.9-.3.9-.8 1.6-1.4 2.2-.6.6-1.3 1.1-2.1 1.4s-1.7.5-2.7.5h-4.4zm1.3-14.5V289h3c.8 0 1.6-.1 2.3-.4.7-.3 1.2-.7 1.7-1.2s.8-1.2 1.1-1.9.4-1.5.4-2.4v-1.5c0-.9-.1-1.7-.4-2.4-.3-.7-.6-1.4-1.1-1.9-.5-.5-1-.9-1.7-1.2-.7-.3-1.4-.4-2.2-.4h-3.1zm34.5 10.1h-7.1l-1.6 4.4h-1.4l5.9-15.6h1.3l5.9 15.6h-1.4l-1.6-4.4zm-6.7-1.1h6.3l-3.1-8.5-3.2 8.5zm26.9-10.1l5.8 13.8 5.8-13.8h1.8v15.6h-1.3v-6.8l.1-7-5.8 13.8h-1l-5.8-13.7.1 6.9v6.8h-1.3v-15.6h1.6zm39 8.1h-7.3v6.4h8.4v1.1h-9.7v-15.6h9.7v1.1h-8.3v5.9h7.3v1.1zm28.7 7.5h-1.3l-9-13.4v13.4h-1.3v-15.6h1.3l9 13.4v-13.4h1.3v15.6zm27.4-14.5h-5.4v14.5h-1.3v-14.5h-5.3v-1.1h12v1.1zm23.3 10.1h-7.1l-1.6 4.4h-1.4l5.9-15.6h1.3l5.9 15.6h-1.4l-1.6-4.4zm-6.7-1.1h6.3l-3.1-8.5-3.2 8.5zm26.5 4.4h7.7v1.1h-9v-15.6h1.3V289zm32.3-2.7c0-.4-.1-.8-.2-1.1-.1-.3-.4-.6-.7-.9-.3-.3-.8-.5-1.3-.8-.5-.2-1.2-.5-2-.7-.8-.2-1.5-.5-2.1-.7-.6-.3-1.2-.6-1.6-.9-.4-.4-.8-.8-1-1.2s-.4-1-.4-1.6c0-.6.1-1.1.4-1.6.3-.5.6-.9 1.1-1.3.5-.4 1-.6 1.7-.8.6-.2 1.3-.3 2.1-.3s1.6.1 2.2.4c.7.2 1.2.6 1.7 1s.8.9 1.1 1.5.4 1.2.4 1.8H347c0-.5-.1-1-.3-1.4-.2-.4-.4-.8-.8-1.1-.3-.3-.8-.6-1.3-.7-.5-.2-1.1-.3-1.7-.3-.6 0-1.2.1-1.7.2-.5.2-.9.4-1.2.6-.3.3-.6.6-.7.9-.2.4-.3.7-.3 1.1 0 .4.1.7.2 1 .1.3.4.6.7.9.3.3.8.5 1.3.8.5.2 1.2.5 2 .7.8.2 1.6.5 2.2.8.6.3 1.2.6 1.6 1 .4.4.8.8 1 1.3s.3 1 .3 1.7c0 .6-.1 1.2-.4 1.7s-.6.9-1.1 1.3c-.5.4-1 .6-1.7.8s-1.4.3-2.1.3c-.5 0-.9 0-1.4-.1-.5-.1-.9-.2-1.4-.4l-1.2-.6c-.4-.2-.7-.5-1-.9-.3-.3-.5-.7-.7-1.2s-.2-.9-.2-1.5h1.3c0 .7.1 1.2.4 1.7.3.5.6.8 1.1 1.1.4.3.9.5 1.4.6.5.1 1.1.2 1.6.2.6 0 1.2-.1 1.7-.2s.9-.3 1.3-.6.6-.6.8-.9.2-1.2.2-1.6z"/></svg>